<svg width="375" height="36" viewBox="0 0 375 36" fill="none" xmlns="http://www.w3.org/2000/svg">
<path d="M58.4301 1.05086C59.0363 1.6707 59.5852 2.15097 60.2692 2.66408C61.0474 3.25108 61.6003 3.59179 62.4318 4.00228C63.554 4.55234 64.1029 4.70832 65.0859 4.74937C66.372 4.80274 67.5393 4.52771 68.8827 3.8545C69.1858 3.70262 69.4397 3.57948 69.4438 3.58769C69.4479 3.59179 69.3906 3.74367 69.3128 3.92839C69.0711 4.47845 68.9933 4.92588 68.9892 5.68529C68.9892 6.6171 69.1366 7.26568 69.5298 8.01688C69.8207 8.57104 69.8288 8.57514 69.9681 8.09897C70.3982 6.62942 71.2747 5.31174 72.4461 4.37172C73.1588 3.79704 73.8428 3.46864 74.7193 3.27571C75.0469 3.20593 76.2798 3.20593 76.6034 3.27571C78.1434 3.61232 79.3271 4.46613 79.8718 5.62782C80.0152 5.93159 80.2405 6.70331 80.3306 7.18358C80.433 7.70901 80.433 8.67777 80.3347 9.13341C80.0561 10.41 79.2575 11.3418 78.0328 11.8221C77.058 12.2039 76.2757 12.1957 75.4811 11.7934C74.8176 11.4609 74.3261 10.8698 74.0557 10.0775C73.9574 9.79019 73.9411 9.68757 73.9452 9.27708C73.9452 8.88712 73.9615 8.75986 74.0394 8.5423C74.2605 7.93478 74.6906 7.41346 75.1903 7.14664C75.4033 7.0317 75.4852 7.01117 75.7187 7.01117C76.2183 7.00707 76.6443 7.2821 76.8655 7.75416C76.9597 7.9553 76.972 8.0374 76.972 8.41505C76.972 8.81323 76.9638 8.86659 76.8491 9.09236C76.7139 9.36328 76.3207 9.78198 76.0791 9.91334C75.9931 9.9585 75.9316 10.0119 75.9398 10.0365C75.948 10.057 76.0627 10.1104 76.1979 10.1555C76.3863 10.2171 76.5583 10.2376 76.972 10.2376C77.4922 10.2417 77.5126 10.2376 77.7748 10.1104C78.1925 9.90513 78.5243 9.53159 78.7332 9.03079C79.0568 8.26317 79.0281 7.47913 78.6554 6.71152C78.2294 5.83307 77.443 5.19681 76.501 4.96283C76.0299 4.84379 75.3377 4.86842 74.8053 5.0244C73.9329 5.28301 73.1424 5.82486 72.6222 6.51859C71.6924 7.75416 71.418 9.45359 71.8972 11.034C72.4338 12.8114 73.9247 14.0962 75.8333 14.4287C76.2757 14.5067 77.1604 14.5067 77.5864 14.4328C78.3031 14.3056 79.0568 13.9895 79.6589 13.5667C79.835 13.4436 79.9865 13.3409 79.9947 13.3409C80.007 13.3409 79.966 13.5133 79.9087 13.7186C79.8145 14.0552 79.8022 14.1783 79.8022 14.7777C79.7981 15.418 79.8063 15.4755 79.9128 15.7834C80.1176 16.3662 80.5599 17.0271 81.1579 17.647L81.4979 18L81.8542 17.6306C82.4645 17.0025 82.8741 16.3868 83.0871 15.7957C83.2755 15.262 83.2591 14.244 83.0543 13.5749C83.0133 13.4477 82.997 13.3409 83.0133 13.3409C83.0338 13.3409 83.0994 13.382 83.1649 13.4353C83.7301 13.8951 84.582 14.2727 85.4135 14.4328C85.9173 14.5273 86.9781 14.4944 87.4778 14.3713C89.538 13.854 90.9306 12.3763 91.2665 10.3485C91.3729 9.72452 91.3361 8.79681 91.1845 8.21391C90.8896 7.06864 90.2548 6.15735 89.3537 5.56625C88.682 5.13113 88.1004 4.93409 87.3344 4.89715C86.9126 4.87663 86.7938 4.88484 86.4948 4.96283C85.3766 5.24607 84.4919 6.08347 84.1561 7.18358C84.0209 7.6187 84.0209 8.26728 84.1561 8.70239C84.3691 9.39202 84.7213 9.85587 85.2128 10.0981C85.4504 10.2171 85.5405 10.2376 85.8845 10.254C86.2777 10.2746 86.716 10.2048 87.0027 10.0857L87.1174 10.0365L86.9208 9.90513C86.6013 9.69989 86.3023 9.3756 86.1589 9.08005C86.0361 8.82965 86.0238 8.77628 86.0238 8.41505C86.0279 7.93888 86.1262 7.65975 86.376 7.40114C86.7692 6.99476 87.3099 6.89213 87.7891 7.13432C88.2765 7.38062 88.7598 7.9512 88.9523 8.50125C89.3291 9.59316 88.813 10.9724 87.7686 11.6579C86.8798 12.2449 85.7576 12.2408 84.578 11.6456C83.1772 10.9396 82.4481 9.49464 82.6038 7.71722C82.6693 6.97834 82.9068 6.08757 83.1895 5.52109C83.9841 3.91197 86.1221 2.93911 88.1331 3.2634C88.6861 3.35371 89.0301 3.46454 89.5462 3.71494C90.0991 3.98586 90.6029 4.35941 91.1436 4.90536C92.0365 5.80433 92.7041 6.92908 93.0318 8.08666C93.0932 8.30011 93.1464 8.48483 93.1546 8.49304C93.212 8.55872 93.6257 7.75416 93.7813 7.2821C94.1458 6.18609 94.1008 4.88484 93.6666 3.86271C93.597 3.69852 93.556 3.57127 93.5724 3.57948C93.5888 3.58769 93.8673 3.72315 94.195 3.88734C94.8749 4.22395 95.6818 4.50718 96.3658 4.64675C96.759 4.72474 96.9638 4.74116 97.6355 4.74116C98.7291 4.74116 99.2779 4.61802 100.306 4.13774C101.78 3.45222 103.177 2.45063 104.467 1.15758C104.77 0.85382 105.008 0.603421 105 0.595211C104.992 0.582897 104.77 0.640365 104.512 0.718359C102.94 1.18632 100.871 1.59681 99.4786 1.71995C97.4553 1.89647 96.4477 1.78563 93.4577 1.05086C91.3729 0.541848 90.5005 0.398176 89.4233 0.394071C88.3052 0.394071 87.4983 0.566477 86.1057 1.11653C85.3152 1.43261 83.8858 2.20023 83.1239 2.72155C82.9683 2.82828 82.829 2.90627 82.8126 2.89396C82.7922 2.88575 82.7676 2.65998 82.7553 2.39316C82.7143 1.49829 82.4645 0.87845 81.9279 0.336603C81.7109 0.123148 81.5593 4.8615e-07 81.502 4.8615e-07C81.4446 4.8615e-07 81.2931 0.119043 81.0924 0.316078C80.8303 0.578792 80.7361 0.710149 80.5804 1.02623C80.347 1.50239 80.2323 2.0073 80.2282 2.54094C80.2282 2.98426 80.2527 2.97606 79.8104 2.6764C78.4629 1.76921 76.6976 0.944128 75.4156 0.619841C73.7854 0.209351 72.6386 0.295553 69.4766 1.06728C67.4655 1.55986 66.7529 1.68712 65.6675 1.76511C63.8571 1.89647 61.0924 1.48598 58.3564 0.681414C58.168 0.623946 58.0042 0.582897 58.0001 0.591107C57.996 0.595211 58.1885 0.800457 58.4301 1.05086Z" fill="white"/>
<path d="M270.43 1.05086C271.036 1.6707 271.585 2.15097 272.269 2.66408C273.047 3.25108 273.6 3.59179 274.432 4.00228C275.554 4.55234 276.103 4.70832 277.086 4.74937C278.372 4.80274 279.539 4.52771 280.883 3.8545C281.186 3.70262 281.44 3.57948 281.444 3.58769C281.448 3.59179 281.391 3.74367 281.313 3.92839C281.071 4.47845 280.993 4.92588 280.989 5.68529C280.989 6.6171 281.137 7.26568 281.53 8.01688C281.821 8.57104 281.829 8.57514 281.968 8.09897C282.398 6.62942 283.275 5.31174 284.446 4.37172C285.159 3.79704 285.843 3.46864 286.719 3.27571C287.047 3.20593 288.28 3.20593 288.603 3.27571C290.143 3.61231 291.327 4.46614 291.872 5.62782C292.015 5.93159 292.24 6.70331 292.331 7.18358C292.433 7.70901 292.433 8.67777 292.335 9.13341C292.056 10.41 291.257 11.3418 290.033 11.8221C289.058 12.2039 288.276 12.1957 287.481 11.7934C286.818 11.4609 286.326 10.8698 286.056 10.0775C285.957 9.79019 285.941 9.68757 285.945 9.27708C285.945 8.88712 285.962 8.75986 286.039 8.5423C286.261 7.93478 286.691 7.41346 287.19 7.14664C287.403 7.0317 287.485 7.01118 287.719 7.01118C288.218 7.00707 288.644 7.2821 288.865 7.75416C288.96 7.9553 288.972 8.0374 288.972 8.41505C288.972 8.81323 288.964 8.86659 288.849 9.09236C288.714 9.36328 288.321 9.78198 288.079 9.91334C287.993 9.9585 287.932 10.0119 287.94 10.0365C287.948 10.057 288.063 10.1104 288.198 10.1555C288.386 10.2171 288.558 10.2376 288.972 10.2376C289.492 10.2417 289.513 10.2376 289.775 10.1104C290.193 9.90513 290.524 9.53159 290.733 9.03079C291.057 8.26317 291.028 7.47913 290.655 6.71152C290.229 5.83307 289.443 5.19681 288.501 4.96283C288.03 4.84379 287.338 4.86842 286.805 5.0244C285.933 5.28301 285.142 5.82486 284.622 6.51859C283.692 7.75416 283.418 9.45359 283.897 11.034C284.434 12.8114 285.925 14.0962 287.833 14.4287C288.276 14.5067 289.16 14.5067 289.586 14.4328C290.303 14.3056 291.057 13.9895 291.659 13.5667C291.835 13.4436 291.987 13.3409 291.995 13.3409C292.007 13.3409 291.966 13.5133 291.909 13.7186C291.814 14.0552 291.802 14.1783 291.802 14.7777C291.798 15.418 291.806 15.4755 291.913 15.7834C292.118 16.3662 292.56 17.0271 293.158 17.647L293.498 18L293.854 17.6306C294.464 17.0025 294.874 16.3868 295.087 15.7957C295.275 15.262 295.259 14.244 295.054 13.5749C295.013 13.4477 294.997 13.3409 295.013 13.3409C295.034 13.3409 295.099 13.382 295.165 13.4353C295.73 13.8951 296.582 14.2727 297.413 14.4328C297.917 14.5273 298.978 14.4944 299.478 14.3713C301.538 13.854 302.931 12.3763 303.266 10.3485C303.373 9.72452 303.336 8.79681 303.185 8.21391C302.89 7.06864 302.255 6.15735 301.354 5.56625C300.682 5.13113 300.1 4.93409 299.334 4.89715C298.913 4.87663 298.794 4.88484 298.495 4.96283C297.377 5.24607 296.492 6.08347 296.156 7.18358C296.021 7.6187 296.021 8.26727 296.156 8.70239C296.369 9.39202 296.721 9.85587 297.213 10.0981C297.45 10.2171 297.54 10.2376 297.885 10.254C298.278 10.2746 298.716 10.2048 299.003 10.0857L299.117 10.0365L298.921 9.90513C298.601 9.69989 298.302 9.3756 298.159 9.08005C298.036 8.82965 298.024 8.77628 298.024 8.41505C298.028 7.93888 298.126 7.65975 298.376 7.40114C298.769 6.99475 299.31 6.89213 299.789 7.13432C300.276 7.38062 300.76 7.9512 300.952 8.50125C301.329 9.59316 300.813 10.9724 299.769 11.6579C298.88 12.2449 297.758 12.2408 296.578 11.6456C295.177 10.9396 294.448 9.49464 294.604 7.71722C294.669 6.97834 294.907 6.08757 295.189 5.5211C295.984 3.91197 298.122 2.93911 300.133 3.2634C300.686 3.35371 301.03 3.46454 301.546 3.71494C302.099 3.98586 302.603 4.35941 303.144 4.90536C304.036 5.80433 304.704 6.92908 305.032 8.08666C305.093 8.30011 305.146 8.48484 305.155 8.49304C305.212 8.55872 305.626 7.75416 305.781 7.2821C306.146 6.18609 306.101 4.88483 305.667 3.86271C305.597 3.69852 305.556 3.57127 305.572 3.57948C305.589 3.58769 305.867 3.72315 306.195 3.88734C306.875 4.22395 307.682 4.50718 308.366 4.64675C308.759 4.72474 308.964 4.74116 309.635 4.74116C310.729 4.74116 311.278 4.61802 312.306 4.13774C313.78 3.45222 315.177 2.45063 316.467 1.15758C316.77 0.85382 317.008 0.603421 317 0.595211C316.992 0.582896 316.77 0.640366 316.512 0.718359C314.94 1.18632 312.871 1.59681 311.479 1.71996C309.455 1.89647 308.448 1.78563 305.458 1.05086C303.373 0.541848 302.501 0.398176 301.423 0.394072C300.305 0.394072 299.498 0.566476 298.106 1.11653C297.315 1.43261 295.886 2.20023 295.124 2.72155C294.968 2.82828 294.829 2.90627 294.813 2.89396C294.792 2.88575 294.768 2.65998 294.755 2.39316C294.714 1.49829 294.464 0.87845 293.928 0.336603C293.711 0.123148 293.559 0 293.502 0C293.445 0 293.293 0.119043 293.092 0.316078C292.83 0.578792 292.736 0.710149 292.58 1.02623C292.347 1.50239 292.232 2.0073 292.228 2.54094C292.228 2.98427 292.253 2.97606 291.81 2.6764C290.463 1.76921 288.698 0.944128 287.416 0.619841C285.785 0.20935 284.639 0.295554 281.477 1.06728C279.466 1.55986 278.753 1.68711 277.667 1.76511C275.857 1.89647 273.092 1.48597 270.356 0.681414C270.168 0.623945 270.004 0.582897 270 0.591106C269.996 0.595211 270.188 0.800457 270.43 1.05086Z" fill="white" fill-opacity="0.9"/>
</svg>
