<svg width="1062" height="363" viewBox="0 0 1062 363" fill="none" xmlns="http://www.w3.org/2000/svg">
<path d="M9.71912 21.1923C23.4163 33.6924 35.8177 43.3779 51.2733 53.7257C68.8575 65.5635 81.3516 72.4345 100.139 80.7127C125.497 91.8055 137.899 94.9512 160.11 95.779C189.171 96.8552 215.547 91.3088 245.903 77.7325C252.751 74.6696 258.489 72.1861 258.582 72.3517C258.675 72.4344 257.379 75.4974 255.62 79.2226C250.16 90.3154 248.402 99.3387 248.309 114.653C248.309 133.445 251.641 146.525 260.525 161.674C267.096 172.849 267.282 172.932 270.428 163.329C280.146 133.693 299.951 107.12 326.42 88.1631C342.523 76.5735 357.979 69.951 377.784 66.0602C385.188 64.6529 413.045 64.6529 420.357 66.0602C455.155 72.8484 481.901 90.0671 494.21 113.494C497.45 119.62 502.54 135.183 504.576 144.869C506.89 155.465 506.889 175.002 504.668 184.19C498.375 209.936 480.328 228.727 452.656 238.413C430.63 246.112 412.953 245.946 394.998 237.833C380.005 231.128 368.9 219.207 362.792 203.23C360.57 197.436 360.2 195.366 360.293 187.088C360.293 179.223 360.663 176.657 362.421 172.27C367.419 160.018 377.137 149.505 388.427 144.124C393.24 141.806 395.091 141.392 400.366 141.392C411.657 141.309 421.282 146.856 426.28 156.376C428.408 160.432 428.686 162.088 428.686 169.704C428.686 177.733 428.501 178.81 425.91 183.363C422.856 188.826 413.971 197.27 408.51 199.919C406.567 200.83 405.179 201.906 405.364 202.403C405.549 202.816 408.14 203.893 411.194 204.803C415.452 206.045 419.339 206.459 428.686 206.459C440.44 206.542 440.902 206.459 446.826 203.893C456.266 199.753 463.762 192.22 468.482 182.121C475.793 166.641 475.145 150.829 466.723 135.349C457.098 117.634 439.329 104.802 418.043 100.084C407.4 97.683 391.759 98.1797 379.728 101.325C360.015 106.541 342.153 117.468 330.4 131.458C309.391 156.376 303.19 190.647 314.018 222.519C326.142 258.363 359.83 284.274 402.958 290.979C412.953 292.552 432.943 292.552 442.568 291.062C458.764 288.496 475.793 282.122 489.398 273.595C493.377 271.112 496.802 269.042 496.987 269.042C497.264 269.042 496.339 272.519 495.043 276.658C492.915 283.446 492.637 285.93 492.637 298.016C492.544 310.93 492.73 312.089 495.136 318.298C499.763 330.053 509.758 343.381 523.271 355.881L530.952 363L539.004 355.55C552.794 342.884 562.048 330.467 566.861 318.546C571.118 307.784 570.748 287.254 566.121 273.761C565.195 271.195 564.825 269.042 565.195 269.042C565.658 269.042 567.139 269.87 568.619 270.946C581.391 280.218 600.641 287.834 619.428 291.062C630.812 292.966 654.782 292.304 666.073 289.821C712.625 279.39 744.091 249.588 751.68 208.694C754.087 196.111 753.254 177.402 749.829 165.647C743.166 142.551 728.821 124.173 708.46 112.253C693.282 103.478 680.14 99.5042 662.834 98.7592C653.301 98.3453 650.617 98.5108 643.861 100.084C618.596 105.796 598.605 122.683 591.016 144.869C587.962 153.644 587.962 166.723 591.016 175.498C595.829 189.406 603.788 198.76 614.894 203.644C620.261 206.045 622.297 206.459 630.072 206.79C638.956 207.204 648.859 205.797 655.337 203.396L657.929 202.403L653.486 199.753C646.268 195.614 639.512 189.075 636.272 183.114C633.496 178.065 633.218 176.988 633.218 169.704C633.311 160.101 635.532 154.472 641.177 149.256C650.062 141.061 662.278 138.991 673.107 143.875C684.12 148.842 695.041 160.349 699.39 171.442C707.905 193.462 696.244 221.277 672.644 235.101C652.561 246.939 627.203 246.857 600.549 234.853C568.897 220.615 552.423 191.475 555.94 155.631C557.421 140.73 562.789 122.766 569.175 111.342C587.129 78.8915 635.439 59.2721 680.881 65.8119C693.375 67.6331 701.149 69.8682 712.81 74.9179C725.304 80.3815 736.687 87.9147 748.904 98.9247C769.079 117.054 784.165 139.736 791.569 163.081C792.957 167.386 794.16 171.111 794.345 171.276C795.641 172.601 804.988 156.376 808.505 146.856C816.742 124.753 815.724 98.5108 805.914 77.8981C804.34 74.5868 803.415 72.0205 803.785 72.1861C804.155 72.3517 810.449 75.0835 817.852 78.3948C833.215 85.1829 851.448 90.8949 866.903 93.7095C875.788 95.2823 880.415 95.6135 895.593 95.6135C920.304 95.6135 932.705 93.13 955.935 83.4445C989.252 69.6199 1020.81 49.421 1049.96 23.3446C1056.81 17.2187 1062.18 12.169 1062 12.0034C1061.81 11.7551 1056.81 12.914 1050.98 14.4869C1015.44 23.9241 968.706 32.2023 937.24 34.6858C891.521 38.2454 868.754 36.0103 801.194 21.1923C754.087 10.9273 734.374 8.0299 710.033 7.94711C684.768 7.94711 666.536 11.424 635.069 22.5168C617.207 28.891 584.908 44.3713 567.694 54.8846C564.177 57.037 561.03 58.6098 560.66 58.3615C560.197 58.1959 559.642 53.6429 559.365 48.2621C558.439 30.2155 552.794 17.7154 540.67 6.78815C535.765 2.48347 532.34 0 531.045 0C529.749 0 526.325 2.40069 521.79 6.37424C515.867 11.6723 513.738 14.3213 510.221 20.6956C504.946 30.2983 502.355 40.4805 502.262 51.2422C502.262 60.1827 502.817 60.0171 492.822 53.974C462.374 35.6791 422.485 19.0399 393.518 12.5001C356.683 4.2219 330.77 5.96032 259.322 21.5234C213.881 31.4572 197.778 34.0235 173.252 35.5964C132.346 38.2454 69.8756 29.9672 8.05322 13.7419C3.79599 12.5829 0.0940133 11.7551 0.00146484 11.9207C-0.0910836 12.0034 4.25876 16.1425 9.71912 21.1923Z" fill="url(#paint0_linear_42_4)"/>
<defs>
<linearGradient id="paint0_linear_42_4" x1="531" y1="-17" x2="550.5" y2="426" gradientUnits="userSpaceOnUse">
<stop stop-color="white"/>
</linearGradient>
</defs>
</svg>
