<svg width="26" height="26" viewBox="0 0 26 26" fill="none" xmlns="http://www.w3.org/2000/svg">
<path opacity="0.992" fill-rule="evenodd" clip-rule="evenodd" d="M12.0606 1.04114C16.9162 0.88295 20.6486 2.82956 23.2578 6.88099C25.1729 10.3148 25.4268 13.8695 24.0195 17.545C22.44 21.1154 19.774 23.4428 16.0215 24.5275C11.3251 25.5685 7.32185 24.3582 4.01172 20.8966C1.28928 17.6114 0.442928 13.8874 1.47266 9.72474C2.5825 6.05889 4.89305 3.46059 8.4043 1.92982C9.58715 1.45632 10.8059 1.16009 12.0606 1.04114ZM12.6699 6.52552C13.2691 6.42319 13.7007 6.64323 13.9648 7.18567C14.0395 8.75735 14.0649 10.3316 14.041 11.9083C15.5477 11.8999 17.0541 11.9083 18.5606 11.9337C19.4032 12.2271 19.6317 12.7772 19.2461 13.5841C19.0779 13.8248 18.8493 13.9686 18.5606 14.0158C17.0541 14.0411 15.5477 14.0496 14.041 14.0411C14.0495 15.5478 14.041 17.0542 14.0156 18.5607C13.7223 19.4033 13.1721 19.6319 12.3652 19.2462C12.1246 19.078 11.9807 18.8495 11.9336 18.5607C11.9082 17.0542 11.8997 15.5478 11.9082 14.0411C10.4016 14.0496 8.8951 14.0411 7.38868 14.0158C6.54601 13.7224 6.3175 13.1722 6.70313 12.3654C6.87137 12.1247 7.09988 11.9808 7.38868 11.9337C8.8951 11.9083 10.4016 11.8999 11.9082 11.9083C11.8997 10.4017 11.9082 8.89523 11.9336 7.3888C12.0447 6.98184 12.2901 6.69406 12.6699 6.52552Z" fill="#104391"/>
</svg>