<svg width="40" height="40" viewBox="0 0 40 40" fill="none" xmlns="http://www.w3.org/2000/svg">
<rect x="12.5926" y="14.8147" width="14.8148" height="1.48148" rx="0.740741" fill="white"/>
<rect x="12.5926" y="19.2593" width="14.8148" height="1.48148" rx="0.740741" fill="white"/>
<rect x="12.5926" y="23.7036" width="14.8148" height="1.48148" rx="0.740741" fill="white"/>
<path d="M20.0953 38.5517C19.6233 39.1339 19.0736 39.6163 18.3423 39.8484C17.3232 40.1713 16.3793 39.969 15.5534 39.3298C15.2721 39.1132 15.0711 38.7449 14.9285 38.4052C14.4099 37.1863 13.9729 35.9414 13.4413 34.7251C13.0277 33.7836 12.4832 32.9031 11.678 32.2314C10.8728 31.5597 10.0016 31.3237 9.01877 31.7646C8.73325 31.8881 8.49449 32.0994 8.33712 32.3677C8.17976 32.6361 8.11197 32.9476 8.14359 33.2571C8.22009 34.1 8.64276 34.6965 9.29234 34.8845C9.49918 34.9519 9.72239 34.9495 9.92776 34.8779C10.1331 34.8062 10.3094 34.6692 10.4294 34.4877C10.5284 34.3146 10.5642 34.1125 10.5306 33.9159C10.4385 33.5009 10.1208 33.4205 9.79022 33.6916C9.74224 33.7305 9.70594 33.7836 9.66056 33.8212C9.56461 33.8874 9.46348 33.9509 9.36494 34.0067C9.28813 33.8922 9.22912 33.7667 9.18991 33.6345C9.16955 33.4836 9.18492 33.3299 9.23477 33.186C9.28463 33.0421 9.36758 32.9119 9.47695 32.806C9.58632 32.7 9.71905 32.6212 9.86444 32.5759C10.0098 32.5306 10.1638 32.5201 10.314 32.5452C11.3694 32.6827 11.9503 33.5593 11.6767 34.6045C11.63 34.7821 11.5587 34.9533 11.4952 35.1374C11.7752 35.0894 12.0553 35.0013 12.3328 35.0077C12.6102 35.0142 12.8669 35.1128 13.16 35.1776C12.911 35.7754 12.478 36.0348 11.8427 36.1735C12.4909 36.3213 13.099 36.3525 13.5282 36.7985C13.9574 37.2446 13.9392 37.8696 14.0196 38.5336C13.9499 38.4541 13.8846 38.371 13.8238 38.2846C13.4311 37.6488 12.8122 37.1855 12.0916 36.9879C11.4537 36.7933 10.8015 36.6351 10.1831 36.3901C9.59411 36.1523 9.02488 35.8683 8.48069 35.5407C7.61978 35.0285 7.30212 34.2128 7.33713 33.239C7.33713 33.1093 7.35398 32.9796 7.36306 32.8318C7.1595 32.8318 6.97409 32.8318 6.77572 32.8318C5.80849 32.8629 5.07593 32.4622 4.55342 31.6505C4.05389 30.8716 3.6749 30.0218 3.4293 29.1296C3.3567 28.8703 3.27761 28.6187 3.20111 28.3633C2.9418 27.4724 2.46466 26.741 1.60116 26.3053L1.63616 26.2211C2.00568 26.2794 2.38168 26.3157 2.74472 26.4C2.94288 26.4418 3.12664 26.5348 3.27769 26.6697C3.42874 26.8046 3.54181 26.9768 3.60564 27.169C3.73529 27.5334 3.82475 27.912 3.94144 28.314C4.05943 27.7486 4.30707 27.2986 4.85811 27.06C5.17706 27.5865 5.12391 28.1337 4.96313 28.6369C5.36896 28.5772 5.7657 28.4657 6.16115 28.4696C7.06874 28.4787 7.77277 29.4279 7.55106 30.2954C7.51456 30.421 7.45319 30.5381 7.3706 30.6395C7.288 30.741 7.18586 30.8248 7.07024 30.886C6.95462 30.9472 6.82788 30.9845 6.69755 30.9958C6.56722 31.0071 6.43595 30.992 6.31155 30.9515C6.11707 30.8802 6.06521 30.7778 6.21431 30.6118C6.32208 30.503 6.42216 30.3869 6.51381 30.2643C6.66422 30.0425 6.60198 29.8571 6.38416 29.7171C6.07947 29.5238 5.70476 29.5991 5.45064 29.9051C5.13168 30.2941 5.12261 30.8271 5.42989 31.2796C5.81886 31.8593 6.72645 32.1653 7.43956 31.9656C8.08784 31.7853 8.52607 31.1461 8.56497 30.3965C8.62332 29.2671 8.0282 28.4942 7.20358 27.8472C6.1819 27.0432 4.99943 26.5388 3.79882 26.0836C3.17518 25.8476 2.54505 25.6284 1.91233 25.4158C1.22003 25.187 0.646776 24.6929 0.318375 24.0418C-0.0100261 23.3907 -0.0667405 22.636 0.160681 21.9431C0.391469 21.2014 0.863415 20.6334 1.44038 20.1484C1.15773 19.8372 0.859526 19.5558 0.614477 19.2343C0.219619 18.7142 0.00403007 18.08 5.5945e-05 17.427C-0.00391818 16.774 0.203935 16.1373 0.592433 15.6125C0.891938 15.2014 1.33147 15.0147 1.78527 14.8344C3.0533 14.3326 4.32522 13.8359 5.57251 13.2861C6.32792 12.9549 7.01045 12.4776 7.58088 11.8818C8.33289 11.0959 8.66351 10.1882 8.27324 9.12102C8.02301 8.43375 7.48364 8.12901 6.69014 8.16013C5.95889 8.18996 5.3158 8.63344 5.11613 9.2468C4.96961 9.69288 5.1252 10.2232 5.50509 10.4411C5.6723 10.5328 5.86514 10.5665 6.05354 10.537C6.49048 10.4437 6.57216 10.1208 6.28433 9.78494C6.25352 9.75785 6.22491 9.72837 6.19875 9.69677C6.12744 9.58136 6.06002 9.46465 5.9913 9.34794C6.11925 9.27239 6.25779 9.21644 6.40231 9.18196C6.54851 9.16858 6.69583 9.18884 6.83298 9.24119C6.97014 9.29354 7.0935 9.37659 7.19362 9.48397C7.29373 9.59136 7.36795 9.72024 7.41058 9.86074C7.4532 10.0012 7.46312 10.1496 7.43956 10.2946C7.29953 11.4409 6.28562 12.0257 5.15762 11.6095C5.06167 11.5744 4.96832 11.5316 4.85292 11.4798C4.91203 11.7569 4.94888 12.0383 4.96313 12.3214C4.93583 12.6021 4.88553 12.8801 4.81273 13.1526C4.20594 12.9101 3.95052 12.4692 3.79493 11.8882C3.70028 13.3224 3.00403 14.0797 1.53892 13.963C1.53892 13.963 1.53892 13.9293 1.55189 13.9228C2.62544 13.3445 2.98718 12.3162 3.26075 11.2308C3.48931 10.3346 3.84192 9.47481 4.30837 8.67623C4.90349 7.65052 5.79034 7.24983 6.94038 7.34449C7.00132 7.34449 7.06226 7.35097 7.1232 7.35227C7.13227 7.35227 7.14135 7.34449 7.15302 7.3393C7.15302 7.08903 7.14005 6.83617 7.15302 6.5859C7.18673 5.69504 7.59903 5.02982 8.34455 4.55002C9.13392 4.04845 9.99341 3.66693 10.8949 3.41797C11.219 3.32461 11.5432 3.21828 11.8647 3.11584C12.5822 2.90523 13.1945 2.43268 13.5801 1.79187C13.6202 1.72573 13.6721 1.66219 13.7382 1.57661C13.6993 3.35573 13.2624 3.63712 11.6391 3.93148C12.2446 4.06115 12.6984 4.31272 12.9279 4.86124C12.3911 5.17246 11.8453 5.14133 11.2424 4.91959C11.5224 5.49015 11.6248 6.01404 11.4485 6.56385C11.3211 6.91329 11.0721 7.20512 10.747 7.38587C10.422 7.56663 10.0427 7.62421 9.67871 7.54808C9.43225 7.47033 9.2262 7.29887 9.10494 7.07062C8.98368 6.84238 8.95692 6.57563 9.03043 6.32785C9.10174 6.12167 9.20417 6.05035 9.3818 6.2267C9.44144 6.28376 9.49849 6.34341 9.55943 6.39787C9.72798 6.54829 9.92247 6.67926 10.1364 6.52755C10.2394 6.4569 10.3166 6.35475 10.3566 6.23644C10.3966 6.11812 10.3971 5.99003 10.3581 5.8714C10.2285 5.40068 9.66834 5.10502 9.14323 5.23599C8.61813 5.36696 8.28491 5.74561 8.09691 6.23707C7.59385 7.54678 8.53644 8.71513 9.93673 8.5712C10.9078 8.47005 11.5795 7.92283 12.1409 7.20444C12.9694 6.1489 13.4789 4.92478 13.9483 3.6838C14.1648 3.10805 14.4124 2.53619 14.5525 1.9397C14.979 0.130751 17.2039 -0.276427 18.3656 0.279873C18.9376 0.555156 19.4415 0.953722 19.8411 1.44693C20.1419 1.16814 20.4142 0.876372 20.7254 0.633883C21.2414 0.234107 21.8728 0.0119171 22.5255 0.000465918C23.1781 -0.0109853 23.8169 0.188917 24.3467 0.570344C24.781 0.878967 24.9885 1.32764 25.1596 1.81002C25.6951 3.31942 26.2215 4.83401 27.0539 6.21892C27.4701 6.90878 27.9446 7.55456 28.6318 8.00323C29.3669 8.48172 30.154 8.6088 30.9656 8.23275C31.5918 7.94358 31.8732 7.4197 31.8356 6.73762C31.7902 6.02701 31.5024 5.44088 30.81 5.14782C30.5719 5.04496 30.304 5.03504 30.0589 5.12001C29.8139 5.20498 29.6095 5.37868 29.4862 5.60686C29.3475 5.89344 29.4188 6.26171 29.6651 6.40435C29.9115 6.54699 30.1021 6.37583 30.2836 6.21503C30.393 6.1337 30.5088 6.06128 30.6298 5.99848C30.6855 6.14501 30.7841 6.28895 30.7906 6.43807C30.8178 7.10848 30.329 7.5377 29.6651 7.44952C28.6279 7.31207 28.0393 6.44066 28.3064 5.41494C28.353 5.23729 28.423 5.06483 28.5034 4.82623C27.9342 5.03111 27.3923 5.0752 26.8516 4.77954C27.0668 4.22454 27.5077 3.96779 28.1248 3.83033C27.5038 3.66565 26.8957 3.65527 26.4691 3.20142C26.0426 2.74756 26.0348 2.16403 25.9998 1.52344C26.0432 1.5639 26.084 1.60722 26.1217 1.65311C26.5975 2.47265 27.3534 2.88761 28.2351 3.12491C29.2021 3.36302 30.14 3.707 31.0317 4.15063C32.2388 4.77954 32.7976 5.72616 32.6317 7.08644C32.6316 7.12299 32.6351 7.15947 32.642 7.19536C32.9817 7.19536 33.3188 7.16683 33.6508 7.19536C34.3729 7.25372 34.9188 7.61939 35.3363 8.20681C35.8966 9.02126 36.3156 9.92433 36.5758 10.8781C36.6614 11.1737 36.756 11.4668 36.8468 11.7612C37.0892 12.5587 37.5314 13.2018 38.2665 13.6233C38.3118 13.6487 38.3483 13.6871 38.3715 13.7335C37.7959 13.7024 37.2046 13.7335 36.734 13.3147C36.2633 12.8958 36.2374 12.3006 36.0689 11.7391C35.9392 12.2812 35.6695 12.7078 35.1444 12.9399C34.8332 12.4108 34.863 11.8714 35.0446 11.3566C34.6556 11.4201 34.2731 11.5252 33.8958 11.529C33.6741 11.5267 33.4558 11.4752 33.2564 11.3783C33.057 11.2813 32.8816 11.1414 32.7428 10.9685C32.6041 10.7956 32.5054 10.5941 32.4539 10.3784C32.4023 10.1628 32.3993 9.93836 32.445 9.7214C32.4777 9.55344 32.5597 9.39902 32.6804 9.27779C32.8012 9.15656 32.9553 9.07399 33.1231 9.04062C33.3992 8.9654 33.6663 8.95762 33.9166 9.21178C33.8025 9.34146 33.6974 9.44649 33.6028 9.5632C33.4731 9.72399 33.3137 9.89905 33.455 10.1117C33.5214 10.2246 33.624 10.3117 33.7462 10.3588C33.8684 10.4059 34.0029 10.4102 34.1279 10.3711C34.6167 10.2414 34.9058 9.64101 34.7515 9.09638C34.7004 8.91784 34.6133 8.75166 34.4956 8.60805C34.3778 8.46443 34.232 8.34643 34.067 8.26128C33.4096 7.90857 32.7198 7.81131 32.0923 8.28462C31.4129 8.80331 31.3312 9.54634 31.4933 10.3218C31.6554 11.0972 32.1727 11.6652 32.7899 12.1372C33.9217 13.0229 35.2352 13.5533 36.5667 14.0447C37.1061 14.2431 37.6416 14.4623 38.1939 14.6101C39.4256 14.9382 39.8898 16.1013 39.9546 17.0298C40.0311 18.1242 39.5371 18.9684 38.7566 19.679C38.6905 19.7387 38.627 19.797 38.5608 19.8515C38.8435 20.1562 39.1378 20.4285 39.3803 20.7398C39.774 21.2596 39.9911 21.8919 39.9997 22.5441C40.0084 23.1962 39.8081 23.834 39.4282 24.3641C39.1689 24.7272 38.7955 24.9347 38.391 25.0994C37.0322 25.6466 35.6604 26.1718 34.3263 26.7748C33.4325 27.1568 32.6552 27.7678 32.0729 28.5461C31.8433 28.8447 31.6865 29.1928 31.6152 29.5627C31.5438 29.9326 31.5598 30.314 31.6619 30.6766C31.7321 30.9848 31.898 31.2628 32.1358 31.471C32.3735 31.6792 32.671 31.8069 32.9856 31.8359C33.8232 31.8943 34.5635 31.5169 34.841 30.8906C35.0588 30.4017 34.937 29.8325 34.5156 29.5731C34.3432 29.4707 34.1407 29.4313 33.9425 29.4616C33.5276 29.5446 33.4381 29.8688 33.7039 30.1981C33.7428 30.2461 33.796 30.2837 33.8336 30.3278C33.8997 30.4238 33.9632 30.5249 34.0216 30.6235C33.9086 30.7025 33.7839 30.7634 33.6521 30.8037C33.5171 30.8253 33.3791 30.8171 33.2477 30.7797C33.1162 30.7422 32.9946 30.6764 32.8913 30.587C32.788 30.4975 32.7056 30.3865 32.6497 30.2617C32.5939 30.137 32.566 30.0015 32.5681 29.8649C32.5396 28.7678 33.4887 28.0365 34.5947 28.3088C34.7814 28.3555 34.9603 28.4294 35.1211 28.4839C35.0951 28.1389 35.0459 27.7862 35.051 27.4335C35.051 27.2468 35.1522 27.0613 35.2066 26.8772C35.6864 27.0069 35.9301 27.2973 36.2205 28.0845C36.2983 26.6438 37.0153 25.9163 38.4753 26.0291C38.4238 26.076 38.3692 26.1193 38.3119 26.1588C37.6601 26.5561 37.1846 27.1874 36.9829 27.9237C36.8131 28.4942 36.6717 29.0752 36.4643 29.6289C36.2392 30.2009 35.9794 30.7587 35.6864 31.2991C35.1237 32.3585 34.2005 32.7475 33.0401 32.649C32.9792 32.649 32.9182 32.6373 32.8391 32.6295C32.8391 32.8292 32.8391 33.0186 32.8391 33.2092C32.8665 33.6523 32.7717 34.0943 32.565 34.4872C32.3583 34.8801 32.0477 35.2086 31.667 35.437C30.8705 35.9461 30.0014 36.3317 29.0895 36.5807C28.8042 36.6624 28.5177 36.7467 28.2351 36.84C27.4182 37.0994 26.7388 37.5532 26.3304 38.3818C26.1826 37.88 26.3862 37.0462 26.7129 36.7052C27.1407 36.2552 27.7398 36.2306 28.3634 36.0646C27.7501 35.9349 27.2989 35.6885 27.0669 35.1361C27.3005 34.9996 27.5626 34.9192 27.8326 34.9012C28.1026 34.8832 28.373 34.9281 28.6227 35.0324C28.5735 34.5837 28.4606 34.1402 28.4931 33.7071C28.5566 32.8565 29.4953 32.2392 30.3082 32.4493C30.5554 32.5257 30.7626 32.6962 30.8853 32.9239C31.008 33.1516 31.0364 33.4185 30.9643 33.6669C30.8969 33.8679 30.7944 33.9496 30.6116 33.7771C30.552 33.7201 30.4962 33.6591 30.4353 33.6047C30.268 33.4568 30.0762 33.3103 29.8609 33.475C29.7528 33.5473 29.6725 33.6541 29.6332 33.7781C29.5938 33.902 29.5978 34.0357 29.6444 34.1571C29.8467 34.7458 30.5922 34.9753 31.1925 34.6343C31.7928 34.2932 32.1507 33.4335 31.999 32.7073C31.8537 32.0123 31.2962 31.5403 30.5481 31.4482C29.5731 31.3341 28.8133 31.7413 28.1741 32.4285C27.2756 33.3933 26.7336 34.5681 26.2591 35.7754C25.97 36.5107 25.6303 37.242 25.4643 38.0071C25.0429 39.9522 22.4342 40.502 21.0158 39.3699C20.7033 39.1184 20.4168 38.8396 20.0953 38.5517ZM20.0551 32.6347C21.7141 32.6253 23.3551 32.2892 24.8843 31.6456C26.4135 31.002 27.801 30.0634 28.9675 28.8835C30.134 27.7035 31.0568 26.3054 31.683 24.7688C32.3093 23.2322 32.6268 21.5873 32.6174 19.928C32.6081 18.2687 32.272 16.6275 31.6284 15.0981C30.9849 13.5687 30.0464 12.181 28.8667 11.0143C27.6869 9.84764 26.2889 8.92479 24.7526 8.29845C23.2162 7.67212 21.5715 7.35457 19.9124 7.36394C12.9953 7.38987 7.31898 13.1279 7.36306 20.0071C7.40714 27.0224 13.0938 32.6801 20.0551 32.6347ZM8.4016 27.6254C8.39665 27.5813 8.38709 27.5379 8.37308 27.4958C7.23575 25.7289 6.51363 23.7271 6.26098 21.641C6.25298 21.5938 6.23524 21.5488 6.20891 21.5088C6.18257 21.4689 6.1482 21.4348 6.10799 21.4089C5.58289 21.1495 5.07074 20.8668 4.51452 20.6853C3.36577 20.3054 2.2637 20.6231 1.61672 21.4543C0.994369 22.2543 1.02678 23.4305 1.68932 24.0763C2.28833 24.6598 3.47468 24.713 4.00108 24.18C4.07569 24.1089 4.13509 24.0234 4.17568 23.9287C4.21626 23.8339 4.23719 23.732 4.23719 23.6289C4.23719 23.5258 4.21626 23.4238 4.17568 23.3291C4.13509 23.2344 4.07569 23.1489 4.00108 23.0778C3.68343 22.7367 3.33725 22.7225 2.97551 23.0298C2.83842 23.1538 2.69333 23.2685 2.54116 23.3734C2.24554 23.5653 2.04458 23.4681 2.02254 23.1141C1.9603 22.3438 2.4893 21.558 3.35021 21.6241C3.62621 21.6352 3.89994 21.6787 4.16575 21.7538C4.88793 21.9937 5.33265 22.4891 5.4273 23.2658C5.52195 24.0425 5.24708 24.6728 4.5625 25.0929C4.42636 25.1759 4.28114 25.2433 4.08666 25.3445C5.63993 25.9202 7.16209 26.4558 8.4016 27.6254ZM31.5646 12.3382C31.5847 12.3991 31.6081 12.4588 31.6346 12.5172C32.7661 14.2785 33.483 16.2737 33.7312 18.3525C33.7366 18.3965 33.7509 18.4389 33.7731 18.4773C33.7954 18.5156 33.8252 18.549 33.8608 18.5755C34.6387 19.0112 35.4258 19.4443 36.3528 19.4741C37.7907 19.5195 38.8966 18.4614 38.8163 17.0869C38.7359 15.6228 37.2383 15.1288 36.1881 15.6734C36.0854 15.7227 35.9949 15.7943 35.9234 15.8831C35.8519 15.9718 35.8012 16.0755 35.775 16.1864C35.7487 16.2973 35.7477 16.4127 35.7718 16.5241C35.796 16.6355 35.8447 16.74 35.9146 16.8301C36.2205 17.2697 36.6315 17.3047 37.0685 16.9377C37.2128 16.8079 37.3691 16.692 37.5353 16.5915C37.7544 16.4696 37.9242 16.5591 37.9683 16.7951C38.1213 17.5226 37.6014 18.3175 36.8636 18.3615C36.4359 18.385 36.0084 18.3123 35.6125 18.1489C34.417 17.6432 34.172 15.9678 35.1483 15.1223C35.3854 14.9441 35.6345 14.7825 35.8938 14.6386C34.3561 14.0797 32.8339 13.539 31.5646 12.3382ZM35.9561 25.1188L35.6825 24.9762C34.749 24.5055 34.3859 23.612 34.723 22.6278C34.9823 21.8757 35.7382 21.4063 36.7042 21.3985C36.8999 21.3957 37.0937 21.4364 37.2718 21.5178C37.4498 21.5991 37.6075 21.719 37.7334 21.8688C37.8594 22.0186 37.9505 22.1946 38.0001 22.384C38.0497 22.5733 38.0565 22.7713 38.0202 22.9637C37.9748 23.1919 37.827 23.2943 37.6169 23.1854C37.4322 23.0787 37.2585 22.9541 37.0983 22.8132C36.6808 22.4774 36.2854 22.5163 35.9859 22.9312C35.9156 23.0175 35.865 23.118 35.8377 23.2258C35.8103 23.3336 35.8068 23.4461 35.8274 23.5554C35.848 23.6647 35.8923 23.7682 35.957 23.8586C36.0218 23.949 36.1055 24.0242 36.2024 24.0789C36.992 24.5548 38.4934 24.3732 38.8137 23.0298C39.1339 21.6864 38.1472 20.4363 36.7392 20.3183C35.6514 20.2301 34.7541 20.7372 33.8647 21.2546C33.7986 21.2935 33.7675 21.427 33.7558 21.5204C33.5785 23.1355 33.114 24.7059 32.384 26.1575C32.1675 26.5816 31.9328 26.9965 31.7604 27.3168C32.362 26.9356 33.0155 26.4623 33.7234 26.0914C34.4313 25.7205 35.1911 25.4456 35.9561 25.1188ZM4.0348 14.8837C4.1476 14.933 4.23187 14.9667 4.31356 15.0056C5.61011 15.628 5.80201 17.4033 4.63121 18.1839C4.25376 18.4066 3.83278 18.5455 3.39689 18.5911C2.55542 18.713 1.84102 17.9233 1.97845 17.0778C2.02383 16.786 2.20535 16.6888 2.45688 16.8405C2.64349 16.9673 2.82311 17.1041 2.99495 17.2502C3.1152 17.3573 3.27154 17.4148 3.43248 17.4112C3.59342 17.4076 3.74702 17.3431 3.86235 17.2308C4.33949 16.8275 4.29411 16.1558 3.7327 15.8796C3.44956 15.7288 3.1313 15.6564 2.81081 15.6699C2.49033 15.6833 2.17925 15.7821 1.90974 15.9561C1.33018 16.3127 1.08642 16.8755 1.13958 17.5316C1.24849 18.8751 2.30648 19.7555 3.65231 19.6842C4.53397 19.6388 5.28597 19.2407 6.02242 18.8102C6.0807 18.77 6.13034 18.7186 6.16842 18.6589C6.20649 18.5992 6.23224 18.5325 6.24413 18.4627C6.46709 16.5504 7.08003 14.7043 8.04505 13.0385C8.1371 12.879 8.23305 12.7208 8.3277 12.5613C7.6817 13.0534 7.00145 13.4989 6.2921 13.8943C5.58159 14.2691 4.81792 14.5453 4.0348 14.8837ZM14.6355 4.10524C14.0805 5.66132 13.5256 7.18629 12.3924 8.41948C14.2039 7.25656 16.2547 6.51805 18.3916 6.25912C18.4299 6.25139 18.4662 6.23589 18.4983 6.21359C18.5304 6.19129 18.5577 6.16266 18.5783 6.12945C18.9582 5.46941 19.3199 4.7964 19.4366 4.03392C19.6791 2.43245 18.6055 1.03976 16.9731 1.19018C16.6729 1.20682 16.384 1.3101 16.1412 1.48754C15.8985 1.66497 15.7123 1.90895 15.6053 2.18997C15.3602 2.77868 15.3641 3.38037 15.7479 3.91851C16.0267 4.30753 16.5129 4.34644 16.8837 4.03781C17.2545 3.72919 17.2921 3.35054 16.9459 2.94596C16.8141 2.80275 16.6956 2.6478 16.592 2.48303C16.4623 2.2561 16.5557 2.07196 16.8033 2.02787C16.9975 1.98874 17.1981 1.99398 17.39 2.0432C17.582 2.09241 17.7603 2.18435 17.9118 2.31213C18.0632 2.43991 18.1839 2.60024 18.2647 2.78117C18.3455 2.9621 18.3845 3.15894 18.3786 3.35703C18.366 3.69491 18.2945 4.02799 18.1673 4.34125C18.0457 4.62507 17.8544 4.8736 17.6112 5.06382C17.368 5.25404 17.0807 5.37981 16.776 5.42946C16.4713 5.47911 16.1589 5.45105 15.8679 5.34787C15.5769 5.24469 15.3167 5.06973 15.1113 4.83919C14.9358 4.60593 14.7768 4.36068 14.6355 4.10524ZM14.8649 36.0049C14.9272 35.8753 14.957 35.8052 14.9855 35.7456C15.3602 34.9131 16.0759 34.5124 16.9731 34.633C17.8704 34.7536 18.4292 35.3786 18.5796 36.3991C18.7248 37.3885 18.1154 38.0706 17.1287 38.0239C16.7851 38.0084 16.6723 37.8022 16.859 37.5053C16.9763 37.3368 17.1027 37.1749 17.2376 37.0203C17.3251 36.9317 17.3832 36.8184 17.4041 36.6957C17.4249 36.573 17.4076 36.4468 17.3543 36.3343C17.2941 36.191 17.1958 36.0669 17.0701 35.9755C16.9444 35.8841 16.7961 35.8288 16.6412 35.8156C16.491 35.7999 16.3396 35.8304 16.2073 35.9032C16.075 35.976 15.968 36.0875 15.9009 36.2228C15.4678 37.0008 15.6118 38.3611 16.8202 38.7657C18.1984 39.226 19.6428 38.1173 19.6881 36.6027C19.718 35.5653 19.2382 34.7238 18.752 33.8796C18.677 33.8008 18.5742 33.7543 18.4655 33.7499C16.8197 33.565 15.2206 33.0854 13.7447 32.3339C13.3311 32.1212 12.9292 31.8865 12.5221 31.6622C13.6929 32.8668 14.2595 34.3996 14.8649 35.9997V36.0049ZM25.1389 4.00539C25.0559 4.17267 25.0092 4.2803 24.9496 4.38663C24.6747 4.90533 24.2767 5.26712 23.6802 5.36048C22.4628 5.5511 21.6057 4.87291 21.4152 3.59044C21.2751 2.62048 21.8819 1.94099 22.8543 1.98119C23.2174 1.99546 23.3289 2.20034 23.1292 2.51156C23.0177 2.68402 22.8699 2.83315 22.7493 2.99653C22.6395 3.12165 22.5821 3.2842 22.5888 3.45052C22.5956 3.61684 22.666 3.77419 22.7856 3.88998C23.1888 4.34514 23.8501 4.29327 24.1198 3.73697C24.6916 2.56083 23.9901 1.19537 22.7052 1.15517C21.2583 1.10849 20.2107 2.22368 20.3105 3.69807C20.3688 4.55391 20.7682 5.28527 21.1662 6.01793C21.2018 6.09055 21.257 6.15182 21.3254 6.19487C21.3939 6.23793 21.473 6.26107 21.5539 6.26171C23.5713 6.48261 25.5142 7.14969 27.2419 8.21459C27.3262 8.25544 27.4128 8.29138 27.5012 8.32223C26.2889 7.07606 25.7275 5.57315 25.1389 4.00539ZM27.6296 31.5921C27.5427 31.6077 27.5323 31.6064 27.5245 31.6103C25.7451 32.7491 23.7334 33.4753 21.6369 33.7356C21.585 33.7464 21.536 33.7681 21.4933 33.7995C21.4506 33.8308 21.4151 33.8709 21.3892 33.9172C21.1299 34.4631 20.8434 35.0026 20.6567 35.5731C20.5184 35.963 20.4779 36.3809 20.5387 36.7901C20.5995 37.1993 20.7598 37.5874 21.0054 37.9202C21.703 38.9031 23.1422 39.121 23.9875 38.3793C24.5736 37.8683 24.7253 36.783 24.3013 36.1463C24.0135 35.7145 23.5389 35.6276 23.1279 35.9427C22.7169 36.2578 22.7039 36.639 23.0527 37.0566C23.1904 37.2081 23.3104 37.3747 23.4106 37.5532C23.5091 37.7477 23.4507 37.9124 23.2057 37.9656C23.0318 38.0012 22.8526 38.0018 22.6786 37.9671C22.5045 37.9324 22.3392 37.8632 22.1922 37.7637C22.0453 37.6641 21.9198 37.5361 21.8231 37.3873C21.7264 37.2385 21.6604 37.0718 21.6291 36.8971C21.5591 36.4157 21.6503 35.9247 21.8884 35.5005C22.0388 35.2283 22.2555 34.9985 22.5184 34.8324C22.7813 34.6664 23.0819 34.5694 23.3922 34.5505C23.7026 34.5316 24.0127 34.5914 24.2938 34.7244C24.5749 34.8574 24.8179 35.0592 25.0001 35.3112C25.1207 35.4823 25.2128 35.6743 25.3463 35.9051C25.9168 34.349 26.4601 32.8344 27.6296 31.5921ZM28.4814 8.99004L30.9021 11.3799C30.5637 10.6836 30.5611 9.92758 30.7309 9.11453C29.9193 9.32201 29.166 9.29996 28.4814 8.99004ZM28.6707 30.8621C29.3656 30.5703 30.0969 30.5638 30.8748 30.7233C30.6817 29.9025 30.692 29.1387 31.0175 28.4579L28.6707 30.8621ZM9.0058 11.4863L11.3837 9.09767C10.6887 9.43742 9.92506 9.44131 9.12249 9.26884C9.30141 10.0495 9.30271 10.7666 9.0058 11.4863ZM11.5198 31.0034L9.12249 28.655C9.43237 29.3734 9.42977 30.1074 9.2703 30.8724C10.0936 30.6831 10.8482 30.6974 11.5198 31.0034Z" fill="white"/>
</svg>
