<svg width="20" height="20" viewBox="0 0 20 20" fill="none" xmlns="http://www.w3.org/2000/svg">
<path opacity="0.989" fill-rule="evenodd" clip-rule="evenodd" d="M3.49609 -0.0195312C3.76953 -0.0195312 4.04297 -0.0195312 4.31641 -0.0195312C4.67059 0.0794328 4.99609 0.242193 5.29297 0.46875C6.34344 1.49314 7.36559 2.54132 8.35938 3.61328C8.84191 4.5334 8.7182 5.36023 7.98828 6.09375C7.66277 6.285 7.32422 6.45426 6.97266 6.60156C6.14043 7.23328 5.92559 8.03406 6.32812 9.00391C7.28516 11.1068 8.81512 12.6367 10.918 13.5938C11.933 13.9734 12.7598 13.7325 13.3984 12.8711C13.7304 11.7187 14.4921 11.2044 15.6836 11.3281C16.0393 11.4018 16.3518 11.558 16.6211 11.7969C17.6443 12.8071 18.6534 13.8292 19.6484 14.8633C19.8187 15.1466 19.9293 15.4461 19.9805 15.7617C19.9805 15.905 19.9805 16.0482 19.9805 16.1914C19.9209 16.6102 19.7582 16.9877 19.4922 17.3242C18.7956 18.0208 18.0989 18.7175 17.4023 19.4141C16.9889 19.7121 16.5332 19.9009 16.0352 19.9805C15.6445 19.9805 15.2539 19.9805 14.8633 19.9805C13.7339 19.7841 12.6532 19.4261 11.6211 18.9062C9.13559 17.5809 6.92855 15.8817 5 13.8086C3.41299 12.1322 2.08487 10.2703 1.01562 8.22266C0.491766 7.15273 0.146715 6.03297 -0.0195312 4.86328C-0.0195312 4.58984 -0.0195312 4.31641 -0.0195312 4.04297C0.0330391 3.48851 0.221841 2.9807 0.546875 2.51953C1.25651 1.80989 1.96614 1.10026 2.67578 0.390625C2.93145 0.210709 3.20488 0.0739898 3.49609 -0.0195312Z" fill="#104391"/>
</svg>
