<svg width="32" height="32" viewBox="0 0 32 32" fill="none" xmlns="http://www.w3.org/2000/svg">
<path opacity="0.943" fill-rule="evenodd" clip-rule="evenodd" d="M13.8437 4.46883C17.8099 4.36312 20.8829 5.94645 23.0625 9.21883C24.7294 12.1203 24.9794 15.1412 23.8125 18.2813C23.3735 19.2954 22.8006 20.2225 22.0937 21.0626C23.8125 22.7813 25.5312 24.5001 27.25 26.2188C27.5506 26.594 27.5402 26.9586 27.2187 27.3126C26.8717 27.5256 26.5384 27.5048 26.2187 27.2501C24.5 25.5313 22.7812 23.8126 21.0625 22.0938C18.0664 24.5283 14.7226 25.1428 11.0312 23.9376C7.93536 22.7148 5.88325 20.5168 4.87499 17.3438C3.84645 13.201 4.89854 9.69052 8.03124 6.81258C9.73105 5.43705 11.6685 4.6558 13.8437 4.46883ZM14.3437 5.84383C18.1647 5.98719 20.8835 7.77883 22.5 11.2188C23.6989 14.5463 23.1781 17.5671 20.9375 20.2813C18.174 23.0593 14.9344 23.7988 11.2187 22.5001C7.85724 20.9171 6.06555 18.2608 5.84374 14.5313C6.02155 10.8924 7.72986 8.25702 10.9687 6.62508C12.0548 6.16019 13.1798 5.89977 14.3437 5.84383Z" fill="white"/>
</svg>
