<svg width="22" height="22" viewBox="0 0 22 22" fill="none" xmlns="http://www.w3.org/2000/svg">
<g clip-path="url(#clip0_39_383)">
<path opacity="0.971" fill-rule="evenodd" clip-rule="evenodd" d="M10.5918 0.62303C14.5459 0.590825 17.6038 2.20932 19.7656 5.4785C21.3217 8.12976 21.6797 10.937 20.8398 13.9004C19.6799 17.3234 17.3811 19.5935 13.9434 20.7109C11.231 21.4605 8.63143 21.1812 6.14453 19.873C4.36532 20.3554 2.58213 20.8281 0.794922 21.291C0.766275 21.2767 0.737632 21.2623 0.708984 21.248C1.19596 19.5006 1.68294 17.7533 2.16992 16.0058C0.550945 13.027 0.371908 9.9619 1.63281 6.81053C3.44088 3.04815 6.42722 0.985652 10.5918 0.62303ZM10.8926 2.38475C14.2033 2.47452 16.717 3.92114 18.4336 6.72459C19.8945 9.48916 19.8945 12.2535 18.4336 15.0176C16.9892 17.4485 14.8622 18.8736 12.0527 19.293C10.0145 19.5084 8.13102 19.0716 6.40234 17.9824C5.35339 18.2715 4.30066 18.5436 3.24414 18.7988C3.50939 17.7808 3.78152 16.7639 4.06055 15.748C2.36188 13.0645 2.12556 10.2572 3.35156 7.32616C4.92645 4.25581 7.44012 2.60867 10.8926 2.38475Z" fill="#104391"/>
<path opacity="0.974" fill-rule="evenodd" clip-rule="evenodd" d="M7.28318 6.12324C7.60063 6.11262 7.91572 6.13411 8.22849 6.18769C8.40255 6.34758 8.52429 6.54094 8.59372 6.76777C8.82537 7.35992 9.06883 7.94717 9.32419 8.52949C9.36089 8.70673 9.34654 8.87861 9.28122 9.04511C9.05418 9.37249 8.81067 9.68758 8.55075 9.99042C8.52209 10.0907 8.52209 10.191 8.55075 10.2912C9.38521 11.7413 10.5812 12.7797 12.1386 13.4064C12.2591 13.4389 12.3737 13.4246 12.4824 13.3635C12.8066 12.9963 13.1146 12.6168 13.4062 12.2248C13.4802 12.1413 13.5733 12.0983 13.6855 12.0959C13.927 12.1378 14.1562 12.2166 14.373 12.3322C14.9864 12.6353 15.5951 12.9433 16.1992 13.256C16.2843 13.7634 16.2126 14.2504 15.9843 14.717C15.2558 15.6094 14.3176 15.9603 13.1699 15.7697C11.1086 15.3016 9.38271 14.2775 7.99216 12.6975C7.41251 12.0176 6.88254 11.3015 6.40232 10.549C5.92158 9.74958 5.74971 8.89021 5.88669 7.97089C6.0229 7.33298 6.33086 6.79587 6.81052 6.35957C6.96048 6.25592 7.11805 6.17716 7.28318 6.12324Z" fill="#104391"/>
</g>
<defs>
<clipPath id="clip0_39_383">
<rect width="22" height="22" fill="white"/>
</clipPath>
</defs>
</svg>
